<svg width="686" height="186" viewBox="0 0 686 186" fill="none" xmlns="http://www.w3.org/2000/svg">
<path d="M54.1398 147.88C43.8991 147.88 34.7465 145.64 26.682 141.16C18.6175 136.679 12.2491 130.567 7.57681 122.823C2.96851 115.078 0.664363 106.31 0.664363 96.5169C0.664363 89.1564 2.04045 82.372 4.79263 76.1636C7.5448 69.8912 11.385 64.4508 16.3134 59.8426C21.3057 55.1703 27.1301 51.554 33.7865 48.9939C40.4429 46.4337 47.6434 45.1536 55.3879 45.1536C62.4923 45.1536 69.0527 46.1137 75.0691 48.0338C81.1495 49.9539 86.6539 52.8341 91.5822 56.6743L78.9094 77.6037C75.8372 74.8515 72.413 72.8034 68.6367 71.4593C64.9245 70.1152 60.9882 69.4432 56.828 69.4432C51.0036 69.4432 45.9793 70.4992 41.755 72.6114C37.5947 74.7235 34.3625 77.7957 32.0584 81.828C29.8182 85.8602 28.6982 90.7245 28.6982 96.4209C28.6982 104.933 31.1943 111.59 36.1866 116.39C41.243 121.19 48.1234 123.591 56.828 123.591C61.5003 123.591 65.8845 122.727 69.9808 120.998C74.1411 119.27 77.8213 116.87 81.0215 113.798L92.8303 135.015C87.5179 138.984 81.4695 142.12 74.6851 144.424C67.9007 146.728 61.0522 147.88 54.1398 147.88ZM144.392 147.88C133.959 147.88 124.71 145.544 116.646 140.872C108.581 136.199 102.245 129.991 97.6366 122.247C93.0923 114.438 90.8201 105.861 90.8201 96.5169C90.8201 89.6685 92.1322 83.172 94.7564 77.0277C97.3805 70.8193 101.093 65.3469 105.893 60.6106C110.693 55.8103 116.358 52.034 122.886 49.2819C129.415 46.5297 136.583 45.1536 144.392 45.1536C154.824 45.1536 164.041 47.4898 172.041 52.1621C180.106 56.8344 186.41 63.0748 190.955 70.8833C195.563 78.6278 197.867 87.1723 197.867 96.5169C197.867 103.301 196.555 109.798 193.931 116.006C191.307 122.215 187.594 127.719 182.794 132.519C178.058 137.256 172.425 141 165.897 143.752C159.369 146.504 152.2 147.88 144.392 147.88ZM144.392 123.591C149.32 123.591 153.736 122.503 157.64 120.326C161.545 118.086 164.617 114.95 166.857 110.918C169.097 106.822 170.217 102.021 170.217 96.5169C170.217 90.9485 169.097 86.1482 166.857 82.116C164.681 78.0837 161.641 74.9795 157.736 72.8034C153.832 70.5632 149.384 69.4432 144.392 69.4432C139.399 69.4432 134.919 70.5632 130.951 72.8034C127.046 74.9795 123.974 78.0837 121.734 82.116C119.558 86.1482 118.47 90.9485 118.47 96.5169C118.47 102.085 119.59 106.886 121.83 110.918C124.07 114.95 127.142 118.086 131.047 120.326C134.951 122.503 139.399 123.591 144.392 123.591ZM207.508 145V48.0338H235.542V60.5146C237.974 57.0584 240.79 54.2102 243.99 51.97C247.255 49.6659 250.711 47.9698 254.359 46.8817C258.071 45.7296 261.784 45.1536 265.496 45.1536C272.856 45.1536 279.129 46.8177 284.313 50.1459C289.561 53.4101 293.178 57.7304 295.162 63.1068C299.258 56.7063 304.506 52.1301 310.907 49.3779C317.307 46.5617 323.996 45.1536 330.972 45.1536C340.253 45.1536 347.581 46.9457 352.957 50.53C358.334 54.0502 362.142 58.6265 364.382 64.2588C366.686 69.8912 367.838 75.8116 367.838 82.02V145H339.805V90.0845C339.805 84.2601 338.236 79.5558 335.1 75.9716C332.028 72.3874 327.484 70.5952 321.467 70.5952C317.691 70.5952 314.299 71.4273 311.291 73.0914C308.283 74.7555 305.914 76.9956 304.186 79.8118C302.522 82.564 301.69 85.7322 301.69 89.3164V145H273.656V90.0845C273.656 84.2601 272.088 79.5558 268.952 75.9716C265.816 72.3874 261.272 70.5952 255.319 70.5952C251.479 70.5952 248.055 71.4273 245.046 73.0914C242.102 74.7555 239.766 76.9956 238.038 79.8118C236.374 82.564 235.542 85.7322 235.542 89.3164V145H207.508ZM384.482 185.323V48.0338H408.867V59.9386C412.58 55.5223 417.284 51.97 422.98 49.2819C428.741 46.5297 435.557 45.1536 443.43 45.1536C452.774 45.1536 461.095 47.3297 468.391 51.682C475.688 55.9703 481.416 61.9867 485.576 69.7312C489.737 77.4757 491.817 86.4042 491.817 96.5169C491.817 103.749 490.601 110.47 488.169 116.678C485.8 122.887 482.44 128.327 478.088 132.999C473.736 137.672 468.583 141.32 462.631 143.944C456.679 146.568 450.118 147.88 442.95 147.88C436.613 147.88 430.885 146.824 425.765 144.712C420.708 142.6 416.26 139.624 412.42 135.783V185.323H384.482ZM438.245 123.591C443.238 123.591 447.686 122.503 451.59 120.326C455.558 118.086 458.631 114.95 460.807 110.918C463.047 106.886 464.167 102.085 464.167 96.5169C464.167 90.9485 463.047 86.1482 460.807 82.116C458.567 78.0837 455.494 74.9795 451.59 72.8034C447.686 70.5632 443.238 69.4432 438.245 69.4432C433.317 69.4432 428.901 70.5632 424.996 72.8034C421.092 74.9795 418.02 78.0837 415.78 82.116C413.54 86.1482 412.42 90.9485 412.42 96.5169C412.42 102.085 413.508 106.886 415.684 110.918C417.924 114.95 420.996 118.086 424.9 120.326C428.805 122.503 433.253 123.591 438.245 123.591ZM501.452 145V6.75115H529.486V145H501.452ZM547.167 145V48.0338H575.201V145H547.167ZM561.184 32.6728C556.512 32.6728 552.48 31.2327 549.087 28.3525C545.695 25.4083 543.999 21.5041 543.999 16.6398C543.999 11.7115 545.695 7.80722 549.087 4.92703C552.48 1.98284 556.512 0.510746 561.184 0.510746C565.856 0.510746 569.889 1.98284 573.281 4.92703C576.673 7.80722 578.369 11.7115 578.369 16.6398C578.369 21.5041 576.673 25.4083 573.281 28.3525C569.889 31.2327 565.856 32.6728 561.184 32.6728ZM601.427 145V36.8971C601.427 26.7844 604.403 18.7519 610.356 12.7995C616.372 6.84716 624.853 3.87097 635.797 3.87097C639.446 3.87097 642.934 4.25499 646.262 5.02304C649.59 5.79109 652.791 6.94316 655.863 8.47926L651.543 29.9846C649.686 28.9606 647.894 28.2565 646.166 27.8725C644.438 27.4885 642.806 27.2965 641.27 27.2965C637.622 27.2965 634.709 28.1605 632.533 29.8886C630.421 31.6167 629.365 34.4329 629.365 38.3372V48.0338H653.559V70.4992H629.365V145H601.427ZM583.666 70.4992V48.0338H604.211V70.4992H583.666ZM667.319 147.88C662.455 147.88 658.23 146.344 654.646 143.272C651.126 140.136 649.366 135.975 649.366 130.791C649.366 127.271 650.166 124.231 651.766 121.671C653.43 119.11 655.606 117.126 658.294 115.718C661.047 114.31 664.055 113.606 667.319 113.606C672.247 113.606 676.472 115.174 679.992 118.31C683.576 121.382 685.368 125.543 685.368 130.791C685.368 134.311 684.536 137.352 682.872 139.912C681.208 142.472 679 144.424 676.248 145.768C673.559 147.176 670.583 147.88 667.319 147.88Z" fill="black"/>
</svg>
